<svg xmlns="http://www.w3.org/2000/svg" viewBox="0 0 640 360" width="640" height="360">
  <defs>
    <linearGradient id="g" x1="0" y1="0" x2="1" y2="1">
      <stop offset="0" stop-color="#1c1b18"/>
      <stop offset="1" stop-color="#3a342a"/>
    </linearGradient>
    <radialGradient id="glow" cx="80%" cy="20%" r="60%">
      <stop offset="0" stop-color="#ffce45" stop-opacity="0.35"/>
      <stop offset="1" stop-color="#ffce45" stop-opacity="0"/>
    </radialGradient>
  </defs>
  <rect width="640" height="360" fill="url(#g)"/>
  <rect width="640" height="360" fill="url(#glow)"/>
  <g transform="translate(396.8,64.8) scale(0.55)" style="color:#ffce45">
    
    <g transform="translate(0,0)">
      <path d="M120 40
               C 150 30, 185 35, 200 60
               C 215 85, 205 115, 180 130
               L 150 150
               C 175 175, 178 215, 150 245
               C 122 275, 75 275, 50 245
               C 25 215, 28 175, 55 150
               C 35 138, 25 115, 35 90
               C 45 65, 80 50, 120 40 Z"
            fill="none" stroke="currentColor" stroke-width="3" opacity="0.55"/>
      <circle cx="100" cy="200" r="14" fill="none" stroke="currentColor" stroke-width="2" opacity="0.5"/>
      <line x1="160" y1="35" x2="230" y2="-30" stroke="currentColor" stroke-width="4" opacity="0.6" stroke-linecap="round"/>
      <line x1="0" y1="100" x2="0" y2="290" stroke="currentColor" stroke-width="1" opacity="0.3"/>
    </g>
    
  </g>
  <g transform="translate(12.8,72.0) scale(1.0)">
    <line x1="0" y1="0" x2="46" y2="0" stroke="#ffce45" stroke-width="3"/>
  </g>
  <text x="25" y="162" font-family="Arial, sans-serif" font-weight="700" font-size="22" fill="#f3f1ea" letter-spacing="1">HỘI THẢO</text>
  <text x="25" y="182" font-family="Arial, sans-serif" font-size="13" fill="#9aa3b0">Chọn Ampli & Pedal Hiệu Ứng</text>
</svg>